<svg width="80" height="80" viewBox="0 0 80 80" fill="none" xmlns="http://www.w3.org/2000/svg">
<path d="M77.1428 37.1429H74.14C72.728 20.4857 59.5143 7.27198 42.8571 5.86004V2.8572C42.8571 1.27918 41.5779 0 39.9999 0C38.4219 0 37.1427 1.27918 37.1427 2.8572V5.86004C20.4855 7.27198 7.27181 20.4857 5.85987 37.1429H2.8572C1.27918 37.1429 0 38.4221 0 39.9999C0 41.5778 1.27918 42.8571 2.8572 42.8571H5.86004C7.27198 59.5143 20.4857 72.728 37.1429 74.14V77.1428C37.1429 78.7208 38.4221 80 40.0001 80C41.5781 80 42.8571 78.7208 42.8571 77.1428V74.14C59.5143 72.728 72.728 59.5143 74.14 42.8571H77.1428C78.7208 42.8571 80 41.5779 80 39.9999C80 38.4219 78.7208 37.1429 77.1428 37.1429ZM39.9999 68.5714C24.2203 68.5714 11.4285 55.7795 11.4285 39.9999C11.4285 24.2203 24.2203 11.4285 39.9999 11.4285C55.7795 11.4285 68.5714 24.2205 68.5714 39.9999C68.5541 55.7723 55.7723 68.5541 39.9999 68.5714Z" fill="#F64E2D"/>
<path d="M39.9999 20C28.9542 20 19.9999 28.9543 19.9999 40C19.9999 51.0458 28.9543 59.9999 39.9999 59.9999C51.0455 59.9999 60 51.0456 60 39.9999C59.9857 28.9601 51.0398 20.0141 39.9999 20ZM39.9999 54.2857C32.1102 54.2857 25.7143 47.8898 25.7143 40C25.7143 32.1103 32.1102 25.7144 39.9999 25.7144C47.8896 25.7144 54.2856 32.1103 54.2856 40C54.2762 47.8857 47.8858 54.2761 39.9999 54.2857Z" fill="#F64E2D"/>
</svg>
