<svg width="80" height="80" viewBox="0 0 80 80" fill="none" xmlns="http://www.w3.org/2000/svg">
<path d="M32.3438 31.25C32.3438 29.5241 30.9447 28.125 29.2188 28.125H16.7188C14.9928 28.125 13.5938 29.5241 13.5938 31.25V36.8559H0V43.1059H13.5938V48.4375C13.5938 50.1634 14.9928 51.5625 16.7188 51.5625H29.2188C30.9447 51.5625 32.3438 50.1634 32.3438 48.4375V43.1059H80V36.8559H32.3438V31.25ZM26.0938 45.3125H19.8438V34.375H26.0938V45.3125Z" fill="#2D0077"/>
<path d="M67.3438 59.6875C67.3438 57.9616 65.9447 56.5625 64.2188 56.5625H51.7188C49.9928 56.5625 48.5938 57.9616 48.5938 59.6875V65.1562H0V71.4062H48.5938V76.875C48.5938 78.6009 49.9928 80 51.7188 80H64.2188C65.9447 80 67.3438 78.6009 67.3438 76.875V71.4062H80V65.1562H67.3438V59.6875ZM61.0938 73.75H54.8438V62.8125H61.0938V73.75Z" fill="#2D0077"/>
<path d="M67.6562 8.75V3.125C67.6562 1.39906 66.2572 0 64.5312 0H52.0312C50.3053 0 48.9062 1.39906 48.9062 3.125V8.75H0V15H48.9062V20.3125C48.9062 22.0384 50.3053 23.4375 52.0312 23.4375H64.5312C66.2572 23.4375 67.6562 22.0384 67.6562 20.3125V15H80V8.75H67.6562ZM61.4062 17.1875H55.1562V6.25H61.4062V17.1875Z" fill="#2D0077"/>
</svg>
