<svg width="80" height="80" viewBox="0 0 80 80" fill="none" xmlns="http://www.w3.org/2000/svg">
<path d="M70.1198 18.86L65.0598 23.92C67.5599 28.7399 68.9999 34.1999 68.9999 40.0199C68.9999 45.8399 67.5599 51.2798 65.06 56.12L69.86 60.92C73.72 54.7199 76 47.4599 76 39.6599C75.9998 32.0199 73.82 24.92 70.1198 18.86Z" fill="#FF9F1C"/>
<path d="M54.8199 22.82L32 0H28.0001V30.3399L9.65997 12L3.99991 17.66L26.34 39.9999L3.99991 62.34L9.65997 68L27.9999 49.6601V80H31.9998L54.8199 57.18L37.6599 39.9999L54.8199 22.82ZM35.9999 15.3201L43.52 22.8401L35.9999 30.3401V15.3201ZM43.52 57.18L35.9999 64.6799V49.64L43.52 57.18Z" fill="#FF9F1C"/>
<path d="M48.9599 40.04L58.2399 49.32C59.3598 46.4199 59.9999 43.28 59.9999 39.9999C59.9999 36.7399 59.3799 33.6199 58.28 30.7399L48.9599 40.04Z" fill="#FF9F1C"/>
</svg>
