<svg width="92" height="162" viewBox="0 0 92 162" fill="none" xmlns="http://www.w3.org/2000/svg">
<path d="M26.2113 15.3278C39.0806 19.6333 51.581 23.7932 62.0797 31.7454C82.229 47.0068 86.7199 71.781 89.9197 95.175C93.128 118.637 93.6538 144.281 83.6138 167.786C78.9611 178.68 71.6823 190.67 60.1421 197.004C53.5544 200.622 46.2279 202.943 38.806 204.548L37.752 202.035C46.5174 200.232 55.4616 197.456 62.6112 192.341C73.0378 184.881 79.4087 171.952 83.1418 161.048C90.7614 138.792 89.8221 115.288 86.6199 93.4067C83.0676 69.1195 77.8077 44.927 55.2248 30.5909C45.0354 24.1246 33.458 21.6185 22.3148 16.9122C15.1484 13.8854 9.21206 8.90808 3.15065 4.50807C1.98215 3.66003 0.725193 2.69942 -0.604277 1.70743L2.49679 0.406774C9.9488 5.72868 17.0937 12.2779 26.2113 15.3278Z" fill="#F64E2D"/>
</svg>
