<svg width="191" height="244" viewBox="0 0 191 244" fill="none" xmlns="http://www.w3.org/2000/svg">
<path d="M113.097 221.34C106.542 234.033 92.9137 240.151 78.9949 240.177C64.9776 240.199 52.5934 232.901 41.009 225.728C29.2702 218.463 16.5736 209.395 10.0002 196.872C2.67714 182.917 3.55323 164.161 6.19264 149.102C11.5812 118.368 27.6929 90.0825 45.3894 64.8249C65.0334 36.7902 86.5914 9.66324 121.94 2.6211C137.888 -0.555859 152.915 1.7506 168.845 1.17027C179.088 0.796399 189.153 -2.53308 198.994 -5.09808C208.981 -7.70029 223.749 -12.9531 233.63 -7.5738C245.352 -1.19383 237.655 13.7107 233.133 22.1646C223.396 40.3689 209.468 58.882 215.284 80.585C218.482 92.5154 224.951 103.233 228.589 114.992C230.47 121.067 231.409 126.58 224.94 130.059C219.315 133.081 212.052 133.063 205.839 133.092C193.094 133.154 180.587 131.455 168.06 134.532C153.873 138.016 139.344 143.903 130.183 155.837C124.265 163.547 122.922 171.69 121.893 180.948C120.4 194.437 118.603 208.822 113.097 221.34C112.143 223.513 115.346 225.41 116.309 223.219C121.272 211.936 123.234 199.466 124.84 187.318C126.491 174.843 126.904 163.722 136.658 154.096C149.591 141.338 169.832 135.957 187.601 136.305C199.541 136.537 213.251 138.806 224.674 134.229C232.873 130.942 234.98 125.055 232.996 116.828C229.878 103.912 222.315 92.4484 218.872 79.6011C214.635 63.787 221.915 49.7101 229.503 36.208C234.768 26.8352 242.209 16.5529 243.414 5.55626C245.938 -17.4842 217.689 -13.5427 203.624 -10.1165C191.195 -7.09019 178.295 -2.04762 165.338 -2.56657C147.664 -3.27525 130.509 -3.99138 113.255 0.855908C80.137 10.1617 59.0961 38.3545 40.4361 65.4591C21.7203 92.6437 4.72134 123.738 1.34163 157.124C-0.226389 172.592 0.552975 190.624 9.88484 203.72C18.6252 215.985 31.8892 224.932 44.7886 232.311C57.7978 239.755 70.6526 245.549 86.0054 243.388C98.797 241.581 110.294 234.876 116.313 223.221C117.405 221.099 114.196 219.213 113.097 221.34Z" fill="#FF9F1C" fill-opacity="0.4"/>
</svg>
