<svg width="237" height="321" viewBox="0 0 237 321" fill="none" xmlns="http://www.w3.org/2000/svg">
<path d="M167.897 287.329C158.597 306.761 138.33 316.887 117.32 317.28C96.0005 317.676 77.72 306.607 60.3192 295.482C42.3437 283.994 23.6484 269.932 13.1837 250.856C2.24667 230.914 2.57403 203.915 5.31016 181.954C11.4409 132.735 35.5136 86.8125 62.4304 45.91C90.1042 3.85991 121.386 -40.8668 172.694 -54.2684C197.952 -60.866 221.779 -58.5689 247.381 -58.2508C263.224 -58.0518 278.96 -63.591 294.051 -67.7501C309.302 -71.9575 330.755 -79.7865 346.25 -72.6141C363.593 -64.5843 356.794 -43.9452 350.645 -30.7333C336.341 0.000289917 311.474 30.148 320.59 66.0729C325.134 83.9759 334.074 100.335 339.806 117.827C341.994 124.504 345.409 134.113 340.675 140.423C335.056 147.909 322.603 149.167 314.119 149.686C294.925 150.863 275.224 146.702 256.231 150.51C232.216 155.324 206.923 165.732 192.401 186.411C183.581 198.973 182.474 212.448 180.819 227.042C178.536 247.143 175.958 268.61 167.897 287.329C166.961 289.506 170.164 291.401 171.111 289.208C178.216 272.704 180.99 254.351 183.35 236.654C185.461 220.825 185.06 204.591 194.023 190.651C208.703 167.829 239.864 154.472 266.381 152.946C286.066 151.814 306.197 156.038 325.702 151.977C338.742 149.26 348.336 142.06 346.223 127.957C343.363 108.854 332.47 91.2747 326.526 73.0462C319.255 50.7554 323.094 31.6118 333.112 10.8276C341.374 -6.31645 352.676 -22.4207 358.65 -40.5934C362.506 -52.3154 362.69 -66.0705 351.512 -73.8604C339.133 -82.4854 321.154 -78.3449 307.678 -75.1568C288.774 -70.6834 269.656 -62.7001 250.066 -62.01C238.116 -61.5878 226.103 -63.6077 214.093 -63.3678C201.38 -63.1111 188.649 -61.7868 176.245 -58.9539C123.819 -46.9864 92.0758 -4.63309 63.4627 37.6718C34.8998 79.9024 9.20324 127.432 2.03275 178.576C-0.989823 200.138 -1.53109 225.276 6.71264 245.861C14.3184 264.858 30.8821 279.327 47.0906 291.01C63.3232 302.712 82.7905 316.121 102.84 319.798C120.572 323.05 140.16 319.787 154.858 308.984C161.926 303.789 167.331 297.1 171.109 289.21C172.138 287.058 168.933 285.168 167.897 287.329Z" fill="#FF9F1C" fill-opacity="0.4"/>
</svg>
