<svg width="635" height="710" viewBox="0 0 635 710" fill="none" xmlns="http://www.w3.org/2000/svg">
<circle r="120" transform="matrix(-1 0 0 1 197 517.6)" fill="#2D0077"/>
<circle r="120" transform="matrix(-1 0 0 1 406.6 120)" fill="#FF9F1C"/>
<circle opacity="0.5" r="12" transform="matrix(-1 0 0 1 613 17)" fill="#F64E2D"/>
<circle opacity="0.5" r="7" transform="matrix(-1 0 0 1 503 313)" fill="#2D0077"/>
<circle opacity="0.5" r="14" transform="matrix(-1 0 0 1 68 346)" fill="#FF9F1C"/>
<circle opacity="0.5" r="9" transform="matrix(-1 0 0 1 9 701)" fill="#2D0077"/>
<circle opacity="0.5" r="10" transform="matrix(-1 0 0 1 401 682)" fill="#FF9F1C"/>
<circle opacity="0.5" r="8" transform="matrix(-1 0 0 1 116 86)" fill="#F64E2D"/>
<circle opacity="0.5" r="10" transform="matrix(-1 0 0 1 625 537)" fill="#F64E2D"/>
</svg>
